<?xml version="1.0" encoding="UTF-8"?>
<svg width="50px" height="46px" viewBox="0 0 50 46" version="1.1" xmlns="http://www.w3.org/2000/svg" xmlns:xlink="http://www.w3.org/1999/xlink">
    <title>Icon</title>
    <g id="Landing-Page" stroke="none" stroke-width="1" fill="none" fill-rule="evenodd" opacity="0.779999971">
        <g id="Landing-page-design-HD" transform="translate(-594.000000, -784.000000)">
            <g id="Forecast-(week)" transform="translate(343.000000, 729.000000)">
                <g id="Thunderstorm" transform="translate(251.000000, 11.000000)">
                    <g id="Thunderstorm-icon" transform="translate(0.000000, 44.000000)">
                        <g id="Clouds" fill="#7ADBFD">
                            <path d="M9.02625192,18.3394405 L5.5572043,18.3394405 C3.29600614,18.3394405 1.45571429,16.3948632 1.45571429,14.0047323 C1.45571429,11.6138462 3.29600614,9.66926895 5.5572043,9.66926895 C5.70809524,9.66926895 5.87270353,9.68135176 6.076298,9.7077829 L6.74339478,9.79538328 L6.81053763,9.09155958 C7.22278034,4.79612052 10.6174654,1.55717218 14.708126,1.55717218 C16.4841628,1.55717218 18.1605684,2.19454042 19.513533,3.28727958 C19.8059293,2.93989878 20.112043,2.6106422 20.4354839,2.30479607 C18.8283871,0.962848946 16.8155453,0.175200749 14.708126,0.175200749 C10.1416897,0.175200749 6.34486943,3.57122562 5.58897081,8.28729752 L5.5572043,8.28729752 C2.57187404,8.28729752 0.142457757,10.8526292 0.142457757,14.0047323 C0.142457757,17.1568355 2.57187404,19.7214119 5.5572043,19.7214119 L9.0565745,19.7214119 C9.02552995,19.4352004 9.00459293,19.1459681 9.00459293,18.8499393 C9.00459293,18.6777592 9.01542243,18.5085999 9.02625192,18.3394405" id="Back-cloud"></path>
                            <path d="M41.3941628,8.30164585 C40.8122581,8.30164585 40.2310753,8.36734614 39.6628879,8.49723635 C37.8464209,4.05604838 33.6084793,1.09349433 29.0225499,1.09349433 C23.3002458,1.09349433 18.5417665,5.34966426 17.5938249,11.260424 L17.5541167,11.260424 C13.8121659,11.260424 10.7676344,14.4752067 10.7676344,18.4262857 C10.7676344,22.3773647 13.8121659,25.590637 17.5541167,25.590637 L41.3941628,25.590637 C45.9071736,25.590637 49.5790937,21.7128101 49.5790937,16.9461415 C49.5790937,12.1794728 45.9071736,8.30164585 41.3941628,8.30164585 L41.3941628,8.30164585 Z M47.9330108,16.9461415 C47.9330108,20.7582681 45.000384,23.8590193 41.3941628,23.8590193 L17.5541167,23.8590193 C14.7196774,23.8590193 12.4137174,21.4220675 12.4137174,18.4262857 C12.4137174,15.4297488 14.7196774,12.9920418 17.5541167,12.9920418 C17.7432719,12.9920418 17.9497542,13.0079005 18.2038863,13.040373 L19.0406452,13.1506287 L19.1243932,12.2685835 C19.641321,6.88493635 23.8965899,2.82511208 29.0225499,2.82511208 C33.2164516,2.82511208 36.9800614,5.63663101 38.3886175,9.82181443 L38.655023,10.6117281 L39.4138095,10.357234 C40.0578034,10.1427641 40.7241782,10.0340188 41.3941628,10.0340188 C45.000384,10.0340188 47.9330108,13.13477 47.9330108,16.9461415 L47.9330108,16.9461415 Z" id="Front-cloud"></path>
                        </g>
                        <path d="M17.6689094,35.9591986 C17.185914,35.0371292 18.5331029,34.2139877 19.0153763,35.135302 L19.0153763,35.135302 L21.095361,39.1060156 C21.5783564,40.0288402 20.2311674,40.8512265 19.748894,39.9299122 L19.748894,39.9299122 Z M10.413149,35.0484568 C9.93015361,34.1263874 11.2773425,33.3040011 11.7603379,34.2253154 C12.4534255,35.5483831 13.1465131,36.872206 13.8396006,38.1960289 C14.323318,39.1180984 12.9754071,39.9404846 12.4931336,39.0199255 C11.7993241,37.6961026 11.1062366,36.3722797 10.413149,35.0484568 Z M39.6260676,34.7184451 C39.1430722,33.7963756 40.4902611,32.9739893 40.9725346,33.8953036 L40.9725346,33.8953036 L43.0525192,37.8660171 C43.5355146,38.7880866 42.1883257,39.6104729 41.7060522,38.6899138 C41.0122427,37.3660909 40.3191551,36.042268 39.6260676,34.7184451 Z M17.6689094,30.3588161 C17.185914,29.4367466 18.5331029,28.6143603 19.0153763,29.5349194 C19.7091859,30.8587423 20.4022734,32.1825652 21.095361,33.505633 C21.5783564,34.4284576 20.2311674,35.2508439 19.748894,34.3295296 C19.0550845,33.0057067 18.3619969,31.6818838 17.6689094,30.3588161 Z M41.3667281,30.3588161 C40.8837327,29.4367466 42.2309217,28.6143603 42.7139171,29.5349194 C43.4070046,30.8587423 44.1000922,32.1825652 44.7939017,33.505633 C45.2768971,34.4284576 43.9289862,35.2508439 43.4467127,34.3295296 C42.7536252,33.0057067 42.0598157,31.6818838 41.3667281,30.3588161 Z M12.229616,29.7667584 C11.7466206,28.8446889 13.0938095,28.0215474 13.5760829,28.9428617 C14.2698925,30.2666846 14.96298,31.5905075 15.6560676,32.9143304 C16.139063,33.8363999 14.791874,34.6587862 14.3096006,33.7374719 C13.6157911,32.413649 12.9227035,31.0905813 12.229616,29.7667584 Z M5.87920123,25.0763624 C5.39620584,24.154293 6.74411674,23.3319067 7.22639017,24.253221 L7.22639017,24.253221 L9.30637481,28.2239345 C9.7893702,29.146004 8.44145929,29.9683903 7.95918587,29.0478311 C7.26609831,27.7240082 6.57301075,26.4001853 5.87920123,25.0763624 Z" id="Rain" fill="#91D0FC"></path>
                        <path d="M36.006851,35.9063363 L33.4944086,35.9063363 C33.1615822,35.9063363 32.8525806,36.0792716 32.6677573,36.3700142 C32.4836559,36.6600016 32.4490015,37.0255067 32.5775115,37.3472115 L34.9361751,43.248154 L25.3318587,32.5948911 L27.7360061,32.5948911 C28.0984332,32.5948911 28.4327035,32.387973 28.6066974,32.0556957 C28.7814132,31.7226633 28.7691398,31.3178891 28.5742089,30.9969395 L26.1996621,27.0919262 L24.7203533,27.0919262 L27.2725038,31.2891925 L24.7434562,31.2891925 C24.3463748,31.2891925 23.9875576,31.5361349 23.8308909,31.9167434 C23.6735023,32.2981071 23.7478648,32.7398849 24.0200461,33.0419551 L34.9852688,45.2048141 C35.1816436,45.4230598 35.4408295,45.535581 35.7050691,45.535581 C35.8913364,45.535581 36.0797696,45.479698 36.2494316,45.3641561 C36.6587865,45.0862515 36.8140092,44.5629148 36.625576,44.09093 L33.8763287,37.212035 L36.4068203,37.212035 C36.7490323,37.212035 37.0630876,37.0307929 37.246467,36.7287226 C37.4291244,36.4266524 37.4522273,36.0528404 37.3063902,35.7303804 L33.4287097,27.0919262 L32.0504762,27.0919262 L36.006851,35.9063363" id="Lighting" fill="#B0BEC5"></path>
                    </g>
                </g>
            </g>
        </g>
    </g>
</svg>