<?xml version="1.0" encoding="UTF-8"?>
<svg width="39px" height="39px" viewBox="0 0 39 39" version="1.1" xmlns="http://www.w3.org/2000/svg" xmlns:xlink="http://www.w3.org/1999/xlink">
    <title>Icon</title>
    <g id="Landing-Page" stroke="none" stroke-width="1" fill="none" fill-rule="evenodd" opacity="0.779999971">
        <g id="Landing-page-design-HD" transform="translate(-720.000000, -784.000000)" fill="#FDFBA3">
            <g id="Forecast-(week)" transform="translate(343.000000, 729.000000)">
                <g id="Sunny" transform="translate(377.000000, 10.000000)">
                    <g id="Sunny-icon" transform="translate(0.000000, 45.000000)">
                        <path d="M19.6701064,29.4737419 C20.1480638,29.4679704 20.5438723,29.8521918 20.5496809,30.3271093 L20.6376383,37.9719616 C20.642617,38.4477036 20.2559362,38.8401701 19.7779787,38.8459417 C19.3000213,38.8517133 18.9042128,38.4674918 18.8984043,37.9917498 L18.8104468,30.3468975 C18.8054681,29.87198 19.1921489,29.478689 19.6701064,29.4737419 Z M12.7903404,26.9169379 C13.1463191,27.2343741 13.1753617,27.7834974 12.8558936,28.137212 L7.71370213,33.8246787 C7.39423404,34.1775688 6.84159574,34.2072511 6.48644681,33.889815 C6.13046809,33.5723788 6.10059574,33.0232554 6.42006383,32.6695409 L11.5622553,26.9820742 C11.8817234,26.6291841 12.4343617,26.5995017 12.7903404,26.9169379 Z M27.8932979,26.2367176 L33.4960213,31.4764756 C33.8437021,31.8021568 33.8602979,32.3512802 33.5325319,32.6975742 C33.2055957,33.0438682 32.6521277,33.0603584 32.303617,32.7346771 L26.7008936,27.4940946 C26.3532128,27.1692378 26.3357872,26.61929 26.6635532,26.272996 C26.9913191,25.9275265 27.5447872,25.9110363 27.8932979,26.2367176 Z M1.01068085,18.7254358 L8.70529787,18.7501711 C9.18325532,18.7518201 9.57325532,19.1418131 9.57159574,19.6167306 C9.57076596,20.0916481 9.1782766,20.4791676 8.69948936,20.4775185 L1.00570213,20.4536078 C0.526914894,20.4519587 0.136914894,20.0619657 0.138574468,19.5870482 C0.140234043,19.1113063 0.532723404,18.7237868 1.01068085,18.7254358 Z M30.3179362,18.7246113 L38.0125532,18.7485221 C38.4905106,18.7501711 38.8805106,19.1401641 38.8788511,19.6150816 C38.8771915,20.0908236 38.4847021,20.478343 38.0067447,20.476694 L30.3121277,20.4519587 C29.8341702,20.4503097 29.4441702,20.0603167 29.4458298,19.5853992 C29.4474894,19.1104817 29.8399787,18.7229623 30.3179362,18.7246113 Z M6.4872766,6.3462498 L12.09,11.5868323 C12.4385106,11.9125136 12.4551064,12.4616369 12.1273404,12.8079309 C11.7995745,13.1534004 11.2461064,13.1698906 10.8984255,12.8442094 L5.29570213,7.60445134 C4.94719149,7.27877008 4.93059574,6.72964673 5.2583617,6.38335273 C5.58612766,6.03705873 6.13876596,6.02056854 6.4872766,6.3462498 Z M32.3052766,5.19111196 C32.6604255,5.50854813 32.6902979,6.05767147 32.3708298,6.41138606 L27.2286383,12.0988528 C26.9091702,12.4517428 26.3565319,12.4814252 26.0005532,12.163989 C25.6454043,11.8465528 25.6155319,11.2974295 25.935,10.9437149 L31.0771915,5.25624821 C31.3966596,4.90335814 31.9492979,4.8736758 32.3052766,5.19111196 Z M19.2394468,0.356188114 C19.7174043,0.350416548 20.1132128,0.734637986 20.1190213,1.21037998 L20.2069787,8.85523229 C20.2127872,9.33014977 19.8252766,9.72344081 19.3473191,9.72838787 C18.8693617,9.73415944 18.4735532,9.349938 18.4685745,8.87502051 L18.380617,1.23016821 C18.3748085,0.754426214 18.7614894,0.361959681 19.2394468,0.356188114 Z" id="Sun-rays"></path>
                        <path d="M19.293383,11.5909549 C14.8490426,11.5909549 11.2328298,15.1841674 11.2328298,19.6002404 C11.2328298,24.0171379 14.8490426,27.6103504 19.293383,27.6103504 C23.7385532,27.6103504 27.354766,24.0171379 27.354766,19.6002404 C27.354766,15.1841674 23.7385532,11.5909549 19.293383,11.5909549 L19.293383,11.5909549 Z M25.7076383,19.6002404 C25.7076383,23.1143 22.8299362,25.973699 19.293383,25.973699 C15.7568298,25.973699 12.8799574,23.1143 12.8799574,19.6002404 C12.8799574,16.0861808 15.7568298,13.2267818 19.293383,13.2267818 C22.8299362,13.2267818 25.7076383,16.0861808 25.7076383,19.6002404 L25.7076383,19.6002404 Z" id="Sun-center"></path>
                    </g>
                </g>
            </g>
        </g>
    </g>
</svg>