<?xml version="1.0" encoding="UTF-8"?>
<svg width="47px" height="37px" viewBox="0 0 47 37" version="1.1" xmlns="http://www.w3.org/2000/svg" xmlns:xlink="http://www.w3.org/1999/xlink">
    <title>Icon</title>
    <g id="Landing-Page" stroke="none" stroke-width="1" fill="none" fill-rule="evenodd" opacity="0.779999971">
        <g id="Landing-page-design-HD" transform="translate(-485.000000, -787.000000)">
            <g id="Forecast-(week)" transform="translate(343.000000, 729.000000)">
                <g id="Light-rain" transform="translate(142.000000, 11.000000)">
                    <g id="Light-rain" transform="translate(0.000000, 47.000000)">
                        <path d="M36.964514,8.0931674 C36.26692,8.0931674 35.5701916,8.16480292 34.8890422,8.30560378 C32.7114413,3.46403044 27.6309494,0.233844698 22.133286,0.233844698 C15.2733238,0.233844698 9.56880559,4.87450921 8.43240256,11.3192362 L8.3848,11.3192362 C3.89890746,11.3192362 0.249089044,14.8244364 0.249089044,19.1324486 C0.249089044,23.4404608 3.89890746,26.9448377 8.3848,26.9448377 L36.964514,26.9448377 C42.3747618,26.9448377 46.7767007,22.7158716 46.7767007,17.5185909 C46.7767007,12.3213101 42.3747618,8.0931674 36.964514,8.0931674 L36.964514,8.0931674 Z M44.803358,17.5185909 C44.803358,21.675098 41.2876923,25.0559654 36.964514,25.0559654 L8.3848,25.0559654 C4.98684242,25.0559654 2.2224317,22.3988638 2.2224317,19.1324486 C2.2224317,15.86521 4.98684242,13.2072851 8.3848,13.2072851 C8.61156131,13.2072851 8.85909464,13.2245764 9.16375105,13.2599825 L10.1668669,13.3801984 L10.267265,12.4184709 C10.8869639,6.54847495 15.9882277,2.12189362 22.133286,2.12189362 C27.1609823,2.12189362 31.6728399,5.1874 33.3614326,9.75066521 L33.6808026,10.6119383 L34.5904443,10.3344536 C35.3624713,10.1006089 36.1613289,9.98203971 36.964514,9.98203971 C41.2876923,9.98203971 44.803358,13.3629071 44.803358,17.5185909 L44.803358,17.5185909 Z" id="Cloud" fill="#7ADBFD"></path>
                        <path d="M8.52241469,32.1429419 C7.94339441,31.136751 9.55841958,30.2400718 10.1365744,31.2446159 L10.1365744,31.2446159 L12.6300832,35.5748598 C13.2091035,36.5802274 11.5940783,37.4769065 11.0159235,36.4723624 C10.1841769,35.0289477 9.3532958,33.5863565 8.52241469,32.1429419 Z M17.7858737,32.1429419 C17.2059879,31.136751 18.8218786,30.2400718 19.4000333,31.2446159 C20.23178,32.6880306 21.0626611,34.1314452 21.8935422,35.5748598 C22.4725625,36.5802274 20.8575373,37.4769065 20.278517,36.4723624 C19.4476359,35.0289477 18.6167548,33.5863565 17.7858737,32.1429419 Z M27.5218963,32.1429419 C26.942876,31.136751 28.5587667,30.2400718 29.1369214,31.2446159 L29.1369214,31.2446159 L31.6304303,35.5748598 C32.2094506,36.5802274 30.5935599,37.4769065 30.0154051,36.4723624 L30.0154051,36.4723624 Z M36.9316249,32.1429419 C36.3526047,31.136751 37.9676298,30.2400718 38.5466501,31.2446159 L38.5466501,31.2446159 L41.040159,35.5748598 C41.6191793,36.5802274 40.0032886,37.4769065 39.4251338,36.4723624 L39.4251338,36.4723624 Z" id="Rain-drops" fill="#91D0FC"></path>
                    </g>
                </g>
            </g>
        </g>
    </g>
</svg>