<?xml version="1.0" encoding="UTF-8"?>
<svg width="61px" height="42px" viewBox="0 0 61 42" version="1.1" xmlns="http://www.w3.org/2000/svg" xmlns:xlink="http://www.w3.org/1999/xlink">
    <title>Icon</title>
    <g id="Landing-Page" stroke="none" stroke-width="1" fill="none" fill-rule="evenodd" opacity="0.779999971">
        <g id="Landing-page-design-HD" transform="translate(-364.000000, -782.000000)">
            <g id="Forecast-(week)" transform="translate(343.000000, 729.000000)">
                <g id="Mostly-cloudy-icon" transform="translate(21.000000, 53.000000)">
                    <path d="M51.3581041,22.6299332 C50.6780599,22.6299332 49.9990398,22.7038469 49.3353821,22.8485947 C47.2133164,17.876867 42.2625123,14.5610131 36.9051155,14.5610131 C30.2193793,14.5610131 24.6602224,19.3253716 23.5541264,25.9427074 L23.5070149,25.9427074 C19.1358871,25.9427074 15.5789689,29.5418974 15.5789689,33.9644048 C15.5789689,38.3869121 19.1358871,41.9850756 23.5070149,41.9850756 L51.3581041,41.9850756 C56.6304954,41.9850756 60.9196901,37.6436681 60.9196901,32.3075044 C60.9196901,26.9713407 56.6304954,22.6299332 51.3581041,22.6299332 L51.3581041,22.6299332 Z M36.9051155,16.4991964 C41.8036873,16.4991964 46.2014433,19.6466912 47.8462491,24.3320031 L48.1575947,25.2158886 L49.0434957,24.9315259 C49.7962555,24.6913061 50.5746194,24.5691431 51.3581041,24.5691431 C55.5694625,24.5691431 58.9963119,28.0400106 58.9963119,32.3075044 C58.9963119,36.5749981 55.5694625,40.0458657 51.3581041,40.0458657 L23.5070149,40.0458657 C20.1958958,40.0458657 17.5023471,37.3182422 17.5023471,33.9644048 C17.5023471,30.6105674 20.1958958,27.8808907 23.5070149,27.8808907 C23.7282341,27.8808907 23.9689124,27.8983426 24.2669438,27.9352995 L25.2439954,28.0584891 L25.342315,27.070919 C25.945547,21.0438668 30.9168344,16.4991964 36.9051155,16.4991964 Z M36.8334241,5.60718086 C41.123643,5.60718086 45.0881781,8.26294375 46.7862404,12.2440216 C47.317781,12.1280181 47.8616116,12.069503 48.4064663,12.069503 C52.6280663,12.069503 56.0620849,15.5455034 56.0620849,19.8181301 C56.0620849,20.3622176 55.9996109,20.8919329 55.893098,21.4041964 C55.3861373,21.1116211 54.856645,20.9381291 54.4336657,20.8385508 C54.4889705,20.5059388 54.5227679,20.1661408 54.5227679,19.8181301 C54.5227679,16.4016713 51.7790351,13.6216922 48.4064663,13.6216922 C47.7786544,13.6216922 47.1559632,13.7192173 46.5537554,13.9122144 L46.5537554,13.9122144 L45.8440104,14.1401152 L45.5951388,13.4317749 C44.277041,9.68065096 40.7559685,7.16039665 36.8334241,7.16039665 C32.0382929,7.16039665 28.0583954,10.7996233 27.5749904,15.6245501 L27.5749904,15.6245501 L27.4961299,16.4150168 L26.7136693,16.3174917 C26.4760635,16.2877209 26.2824967,16.2733488 26.1053165,16.2733488 C23.4547826,16.2733488 21.2978952,18.458938 21.2978952,21.1444717 C21.2978952,22.0488888 21.553936,22.8886314 21.981012,23.613397 C21.3316926,23.716055 20.8278044,23.8946799 20.4683232,24.0733049 C20.0187156,23.1945523 19.7575541,22.2018492 19.7575541,21.1444717 C19.7575541,17.6027701 22.6057514,14.7211596 26.1053165,14.7211596 L26.1053165,14.7211596 L26.1432105,14.7211596 C27.0291115,9.42297934 31.4811482,5.60718086 36.8334241,5.60718086 Z" id="Clouds" fill="#7ADBFD"></path>
                    <path d="M11.9401177,28.6785435 C12.3159855,28.3161607 12.9202417,28.3295062 13.2817713,28.7062612 C13.6433008,29.0840427 13.6299867,29.689725 13.2541189,30.0521078 L13.2541189,30.0521078 L7.1931221,35.8789768 C6.81623011,36.2413596 6.21197392,36.2290406 5.85044438,35.8512591 C5.48891483,35.4734776 5.50222895,34.8688219 5.87912094,34.5064391 L5.87912094,34.5064391 Z M12.1828443,20.5459754 C12.5423256,15.6964107 16.7721188,12.0438385 21.610265,12.4051947 C22.9089037,12.5016933 24.1163919,13.0355149 25.1876664,13.6288783 C23.7538382,13.6052669 22.9467977,14.4357703 22.9467977,14.4357703 L22.9467977,14.4357703 L22.6897328,14.3382452 C22.0260752,14.0641483 22.2309078,14.2581719 21.4760996,14.20171 C17.627295,13.9142676 14.2618953,16.820516 13.9751296,20.6794309 C13.7897561,23.1729941 14.9398912,25.4581615 16.8120612,26.8450713 C16.3501637,27.3368032 16.0039966,27.8367478 15.7469317,28.2935759 C13.3944292,26.5514694 11.9503593,23.6790981 12.1828443,20.5459754 Z M1.0165875,18.7533704 L1.12700452,18.7556196 L9.50056139,19.4064714 C10.0208362,19.4475347 10.4141148,19.9074426 10.3731483,20.4289453 L10.3731483,20.4289453 L10.358308,20.5386352 C10.267346,21.0045425 9.83721841,21.3417217 9.35410608,21.3035916 L9.35410608,21.3035916 L0.980549206,20.6527398 C0.459250228,20.6116766 0.0669957905,20.1517686 0.106938148,19.6302659 C0.147904669,19.1087632 0.606729703,18.7145564 1.12700452,18.7556196 Z M6.75682865,5.54763921 C7.14088979,5.19346906 7.74514597,5.22016014 8.09745805,5.60615428 L8.09745805,5.60615428 L13.7692729,11.8149111 C14.1215849,12.2009053 14.0949567,12.805561 13.7098714,13.1597311 C13.3247861,13.5128747 12.7215541,13.4861836 12.369242,13.1001895 L12.369242,13.1001895 L6.6974272,6.89143265 C6.34511512,6.50543851 6.37174336,5.90078279 6.75682865,5.54763921 Z M22.4674894,0.0636479703 C22.9877642,0.0964985355 23.3871878,0.550246969 23.3544146,1.07277627 L23.3544146,1.07277627 L22.8269706,9.47533493 C22.7941974,9.99683765 22.3415174,10.3972039 21.8202184,10.3643534 C21.2999436,10.3315028 20.90052,9.87775435 20.9332932,9.35522505 L20.9332932,9.35522505 L21.4607372,0.953692974 C21.4935104,0.431163669 21.9461904,0.030797405 22.4674894,0.0636479703 Z" id="Sun" fill="#FDFBA3"></path>
                </g>
            </g>
        </g>
    </g>
</svg>