<?xml version="1.0" encoding="UTF-8"?>
<svg width="20px" height="29px" viewBox="0 0 20 29" version="1.1" xmlns="http://www.w3.org/2000/svg" xmlns:xlink="http://www.w3.org/1999/xlink">
    <title>water drop</title>
    <g id="Landing-Page" stroke="none" stroke-width="1" fill="none" fill-rule="evenodd">
        <g id="Landing-page-design-HD" transform="translate(-619.000000, -557.000000)" fill="#FFFFFF">
            <g id="Temperature" transform="translate(236.000000, 309.000000)">
                <g id="Detailed-info" transform="translate(136.000000, 244.000000)">
                    <g id="Humidity" transform="translate(232.000000, 4.000000)">
                        <g id="Icon" transform="translate(15.000000, 0.000000)">
                            <path d="M18.4173179,13.4951596 C18.3391667,13.3769147 17.9321091,12.7827881 17.1966246,11.7122964 C16.4609004,10.6418047 15.8033274,9.650143 15.2239056,8.73731124 C14.6444839,7.82447948 13.9969794,6.65557121 13.2806732,5.23058643 C12.5646066,3.80560165 12.0240207,2.48217695 11.6596347,1.26079597 C11.5553531,0.866887909 11.3374407,0.558096874 11.0051781,0.334906486 C10.6736348,0.111716099 10.3382557,7.10542736e-15 9.99976027,7.10542736e-15 C9.6612648,7.10542736e-15 9.32924198,0.111716099 9.00369181,0.334906486 C8.67814163,0.558096874 8.45687299,0.866887909 8.33964616,1.26079597 C7.97502038,2.48217695 7.43467421,3.80560165 6.71860766,5.23058643 C6.00254111,6.65557121 5.35479695,7.82447948 4.77537517,8.73731124 C4.1959534,9.650143 3.5383804,10.6418047 2.80265618,11.7122964 C2.06693197,12.7827881 1.66011411,13.3769147 1.58196289,13.4951596 C0.527400873,15.20282 0,17.0086551 0,18.9129068 C0,21.6975877 0.976650525,24.0745775 2.92971185,26.0446014 C4.88277317,28.0146253 7.23929616,29 9.99976027,29 C12.7599847,29 15.1169871,28.0148671 17.0700484,26.0446014 C19.0231097,24.0743356 20,21.6973459 20,18.9129068 C20,16.9689983 19.4723594,15.1631632 18.4173179,13.4951596 L18.4173179,13.4951596 Z M9.26739224,23.2176037 C8.77882725,23.7101702 8.18981637,23.9565743 7.49964041,23.9565743 C6.80970418,23.9565743 6.22045356,23.7101702 5.7321283,23.2176037 C5.24380304,22.7252791 4.99952054,22.130669 4.99952054,21.4347406 C4.99952054,20.9617607 5.1299324,20.5088511 5.39027665,20.0752862 C5.40346167,20.0619867 5.50414729,19.9147245 5.69305269,19.6322908 C5.8819581,19.349857 6.04784964,19.1000675 6.19120679,18.883406 C6.33456394,18.6665027 6.49733902,18.3777819 6.67953205,18.0165181 C6.86172508,17.6552544 6.99860958,17.3237332 7.08970609,17.0219547 C7.141727,16.811822 7.2786115,16.7063929 7.49988014,16.7063929 C7.72114877,16.7063929 7.85803327,16.811822 7.91005418,17.0219547 C8.00115069,17.3237332 8.13803519,17.6552544 8.32022822,18.0165181 C8.50242125,18.3777819 8.66519634,18.6667445 8.80855348,18.883406 C8.9516709,19.1000675 9.11756245,19.349857 9.30646785,19.6322908 C9.49513353,19.9147245 9.59605888,20.0619867 9.6092439,20.0752862 C9.86958815,20.5088511 9.99976027,20.9617607 9.99976027,21.4347406 C9.99976027,22.130669 9.75547778,22.7252791 9.26739224,23.2176037 L9.26739224,23.2176037 Z" id="water-drop"></path>
                        </g>
                    </g>
                </g>
            </g>
        </g>
    </g>
</svg>