<?xml version="1.0" encoding="UTF-8"?>
<svg width="384px" height="266px" viewBox="0 0 384 266" version="1.1" xmlns="http://www.w3.org/2000/svg" xmlns:xlink="http://www.w3.org/1999/xlink">
    <title>Mostly cloudy icon</title>
    <g id="Landing-Page" stroke="none" stroke-width="1" fill="none" fill-rule="evenodd">
        <g id="Landing-page-design-HD" transform="translate(-876.000000, -331.000000)">
            <g id="Mostly-cloudy-icon" transform="translate(876.000000, 331.000000)">
                <path d="M323.303475,143.118455 C319.022541,143.118455 314.748054,143.585908 310.570274,144.501336 C297.211696,113.058645 266.045979,92.0881949 232.320727,92.0881949 C190.23347,92.0881949 155.238122,122.219421 148.275156,164.069428 L147.978585,164.069428 C120.461978,164.069428 98.0708864,186.831781 98.0708864,214.801038 C98.0708864,242.770295 120.461978,265.526156 147.978585,265.526156 L323.303475,265.526156 C356.49361,265.526156 383.494443,238.069798 383.494443,204.322305 C383.494443,170.574813 356.49361,143.118455 323.303475,143.118455 L323.303475,143.118455 Z M232.320727,104.345845 C263.157638,104.345845 290.841873,124.251542 301.19606,153.882854 L303.156006,159.47281 L308.732825,157.674415 C313.47151,156.155193 318.371375,155.382598 323.303475,155.382598 C349.814321,155.382598 371.386619,177.333401 371.386619,204.322305 C371.386619,231.31121 349.814321,253.262013 323.303475,253.262013 L147.978585,253.262013 C127.13482,253.262013 110.17871,236.011708 110.17871,214.801038 C110.17871,193.590369 127.13482,176.327079 147.978585,176.327079 C149.371179,176.327079 150.886268,176.437449 152.762401,176.671176 L158.91302,177.450264 L159.53195,171.204575 C163.329345,133.087698 194.624006,104.345845 232.320727,104.345845 Z M231.869424,35.4614862 C258.876704,35.4614862 283.833777,52.2573238 294.523218,77.4348491 C297.86931,76.701208 301.292768,76.3311412 304.722673,76.3311412 C331.297991,76.3311412 352.91542,98.314406 352.91542,125.335773 C352.91542,128.776745 352.522141,132.126823 351.851633,135.36653 C348.660274,133.516196 345.327077,132.418981 342.664387,131.789218 C343.012535,129.685681 343.225293,127.536696 343.225293,125.335773 C343.225293,103.729067 325.95327,86.1476493 304.722673,86.1476493 C300.770545,86.1476493 296.850654,86.7644272 293.059706,87.9849984 L293.059706,87.9849984 L288.591803,89.4263111 L287.025136,84.9465554 C278.727602,61.2233275 256.562162,45.2844867 231.869424,45.2844867 C201.68368,45.2844867 176.629899,68.300043 173.586825,98.8143208 L173.586825,98.8143208 L173.090391,103.813468 L168.164738,103.19669 C166.66899,103.008411 165.450471,102.917517 164.335107,102.917517 C147.649779,102.917517 134.071996,116.739836 134.071996,133.723953 C134.071996,139.443757 135.683794,144.75454 138.372272,149.338174 C134.284754,149.987414 131.112736,151.117091 128.849772,152.246769 C126.019456,146.689275 124.375422,140.411125 124.375422,133.723953 C124.375422,111.325175 142.305058,93.1010092 164.335107,93.1010092 L164.335107,93.1010092 L164.573653,93.1010092 C170.150473,59.5937352 198.176408,35.4614862 231.869424,35.4614862 Z" id="Clouds" fill="#7ADBFD"></path>
                <path d="M75.1640197,181.371673 C77.5301385,179.079856 81.3339807,179.164257 83.6098388,181.546968 C85.8856969,183.936171 85.8018835,187.766687 83.4357647,190.058504 L83.4357647,190.058504 L45.2812932,226.909363 C42.9087272,229.20118 39.104885,229.123272 36.8290269,226.734069 C34.5531688,224.344866 34.6369822,220.520842 37.0095482,218.229025 L37.0095482,218.229025 Z M76.6920037,129.938884 C78.9549675,99.2687887 105.581863,76.1688312 136.038389,78.4541559 C144.213426,79.0644414 151.814664,82.4404892 158.558425,86.1930961 C149.823522,86.0485878 144.783845,90.9628816 144.467794,91.2800832 L144.451972,91.2961221 L142.833728,90.6793442 C138.655949,88.9458735 139.945387,90.172937 135.193807,89.815855 C110.965267,87.9979832 89.7797998,106.377966 87.9745865,130.782896 C86.8076451,146.552934 94.0478397,161.005016 105.833303,169.776248 C102.925621,172.886107 100.74647,176.047906 99.1282255,178.937023 C84.3190297,167.919421 75.2284916,149.753687 76.6920037,129.938884 Z M0.673184409,124.147664 C0.931072016,120.849525 3.81941321,118.356443 7.09458582,118.616139 L7.09458582,118.616139 L59.8068127,122.732321 C63.0819853,122.992017 65.5577063,125.900612 65.2998187,129.198751 L65.2998187,129.198751 L65.2786154,129.422353 C64.9168902,132.608789 62.0856014,134.984069 58.8848645,134.730275 L58.8848645,134.730275 L6.17263763,130.614094 C2.89101783,130.354398 0.421743993,127.445803 0.673184409,124.147664 Z M42.5347902,35.084927 C44.9524865,32.8450492 48.7563287,33.0138516 50.9741621,35.4549938 L50.9741621,35.4549938 L86.6787013,74.7210261 C88.8965347,77.1621683 88.7289078,80.9861917 86.3047643,83.2260695 C83.8806208,85.4594549 80.0832258,85.2906526 77.8653924,82.8495103 L77.8653924,82.8495103 L42.1608532,43.583478 C39.9430198,41.1423358 40.1106467,37.3183125 42.5347902,35.084927 Z M135.0971,6.03143916 C135.30341,2.7268078 138.153068,0.194771986 141.434687,0.402528771 C144.70986,0.610285555 147.224264,3.47992615 147.017954,6.7845575 L147.017954,6.7845575 L143.697651,59.9248476 C143.491341,63.2229866 140.641683,65.7550224 137.360063,65.5472656 C134.084891,65.3395088 131.570487,62.4698682 131.776797,59.1652369 L131.776797,59.1652369 Z" id="Sun" fill="#FDFBA3"></path>
            </g>
        </g>
    </g>
</svg>