<?xml version="1.0" encoding="UTF-8"?>
<svg width="36px" height="27px" viewBox="0 0 36 27" version="1.1" xmlns="http://www.w3.org/2000/svg" xmlns:xlink="http://www.w3.org/1999/xlink">
    <title>Wind speed</title>
    <g id="Landing-Page" stroke="none" stroke-width="1" fill="none" fill-rule="evenodd">
        <g id="Landing-page-design-HD" transform="translate(-713.000000, -558.000000)" fill="#FFFFFF">
            <g id="Temperature" transform="translate(236.000000, 309.000000)">
                <g id="Detailed-info" transform="translate(136.000000, 244.000000)">
                    <g id="Icon" transform="translate(341.000000, 5.000000)">
                        <path d="M0.550000008,17.1818182 C0.246243391,17.1818182 -1.48221759e-16,16.9355748 0,16.6318182 L0,16.6318182 L0,15.9785714 C6.10721904e-17,15.6748148 0.246243391,15.4285714 0.550000008,15.4285714 L0.550000008,15.4285714 L22.9884615,15.4285714 C23.0638239,15.4285714 23.1356461,15.4437288 23.201046,15.4711612 C26.0246547,15.8217218 28.2115385,18.2593 28.2115385,21.2142857 C28.2115385,24.4096475 25.6543956,27 22.5,27 C22.0220613,27 21.6346154,26.6075223 21.6346154,26.1233766 C21.6346154,25.6392309 22.0220613,25.2467532 22.5,25.2467532 C24.6985181,25.2467532 26.4807692,23.441356 26.4807692,21.2142857 C26.4807692,18.9872154 24.6985181,17.1818182 22.5,17.1818182 L22.5,17.1818182 Z M17.7961538,18.9350649 C18.0999105,18.9350649 18.3461538,19.1813083 18.3461538,19.4850649 L18.3461538,20.1383117 C18.3461538,20.4420683 18.0999105,20.6883117 17.7961538,20.6883117 L0.550000008,20.6883117 C0.246243391,20.6883117 1.72094493e-16,20.4420683 0,20.1383117 L0,19.4850649 C-3.71994569e-17,19.1813083 0.246243391,18.9350649 0.550000008,18.9350649 L17.7961538,18.9350649 Z M29.25,0 C32.9779221,0 36,3.0613257 36,6.83766234 C36,10.613999 32.9779221,13.6753247 29.25,13.6753247 C29.2442661,13.6753247 29.2385452,13.6752682 29.2328378,13.6751557 L29.2192308,13.6753247 L29.2192308,13.6753247 L0.550000008,13.6753247 C0.246243391,13.6753247 3.71994569e-17,13.4290813 0,13.1253247 L0,12.4720779 C-3.71994569e-17,12.1683213 0.246243391,11.9220779 0.550000008,11.9220779 L29.2192308,11.9220779 L29.232,11.923 L29.25,11.9220779 C31.9490961,11.9220779 34.1505943,9.76394006 34.2645935,7.05821373 L34.2692308,6.83766234 C34.2692308,4.02961715 32.0220446,1.75324675 29.25,1.75324675 C26.4779554,1.75324675 24.2307692,4.02961715 24.2307692,6.83766234 C24.2307692,7.32180806 23.8433233,7.71428571 23.3653846,7.71428571 C22.8874459,7.71428571 22.5,7.32180806 22.5,6.83766234 C22.5,3.0613257 25.5220779,0 29.25,0 Z" id="Wind-speed"></path>
                    </g>
                </g>
            </g>
        </g>
    </g>
</svg>